<svg xmlns="http://www.w3.org/2000/svg" viewBox="0 0 32 32"><path fill="#336791" d="M16 2.5c-7.456 0-13.5 6.044-13.5 13.5s6.044 13.5 13.5 13.5 13.5-6.044 13.5-13.5-6.044-13.5-13.5-13.5zm-1.25 19.094v-3.594h2.5v3.594c0 .69.56 1.25 1.25 1.25h1.25c.69 0 1.25-.56 1.25-1.25v-8.188c0-.69-.56-1.25-1.25-1.25H17.5v-1.25c0-.69-.56-1.25-1.25-1.25h-2.5c-.69 0-1.25.56-1.25 1.25v1.25h-1.25c-.69 0-1.25.56-1.25 1.25v8.188c0 .69.56 1.25 1.25 1.25H12c.69 0 1.25-.56 1.25-1.25v-3.594h2.5v3.594c0 .69-.56 1.25-1.25 1.25z"/></svg>
