<svg xmlns="http://www.w3.org/2000/svg" viewBox="0 0 32 32"><path fill="#6db33f" d="M16.328 4.48c-7.761 0-14.057 6.296-14.057 14.057s6.296 14.057 14.057 14.057 14.057-6.296 14.057-14.057-6.296-14.057-14.057-14.057zm6.708 21.422c-.464.464-3.88 2.437-7.401 2.437-3.864 0-7.068-2.177-7.068-5.792 0-2.839 1.776-4.583 4.145-5.457-.703-1.161-.921-2.177-.921-2.993 0-1.704 1.265-3.104 3.463-3.104s3.464 1.401 3.464 3.104c0 1.068-.416 1.984-1.131 2.745 2.745 1.067 4.792 2.479 5.453 4.296.703 1.932-.084 4.301-1.004 4.764zm-6.708-9.547c-.775 0-1.401-.627-1.401-1.401s.627-1.401 1.401-1.401 1.401.627 1.401 1.401-.627 1.401-1.401 1.401z"/></svg>
